<?xml version="1.0" standalone="no"?>

<svg version="1.0" xmlns="http://www.w3.org/2000/svg"
 width="1080.000000pt" height="1080.000000pt" viewBox="0 0 1080.000000 1080.000000"
 preserveAspectRatio="xMidYMid meet">

<g transform="translate(0.000000,1080.000000) scale(0.100000,-0.100000)"
fill="#000000" stroke="none">
<path d="M5112 4545 c-18 -15 -32 -32 -32 -39 0 -29 -52 -142 -73 -158 -15
-11 -23 -29 -25 -55 -11 -175 -9 -199 18 -208 31 -10 49 6 76 66 26 57 28 58
73 64 96 13 151 40 151 75 0 9 -5 21 -11 27 -8 8 -8 13 0 17 17 11 13 46 -6
53 -25 9 -33 23 -33 61 0 55 -35 105 -81 117 -19 5 -34 0 -57 -20z m96 -28
c21 -22 27 -43 24 -79 -3 -25 -23 -23 -29 2 -3 12 -11 19 -17 17 -11 -3 -56
-75 -56 -89 0 -4 35 -8 78 -10 76 -3 77 -3 52 -20 -14 -9 -56 -23 -94 -30 -74
-14 -87 -25 -111 -96 -10 -28 -18 -37 -37 -37 -20 0 -23 4 -20 35 2 19 3 55 3
79 0 34 4 44 18 48 13 3 28 29 46 79 15 40 36 85 47 99 25 32 67 33 96 2z"/>
<path d="M3142 4525 c-11 -14 -24 -25 -29 -25 -16 0 -33 -40 -27 -64 3 -15 -4
-48 -21 -87 -52 -125 -43 -259 18 -259 19 0 25 11 45 75 l24 76 60 30 c94 47
107 65 107 142 0 71 -6 81 -54 93 -17 4 -38 15 -48 25 -25 26 -52 24 -75 -6z
m72 -11 c3 -8 17 -14 31 -14 30 0 69 -36 61 -57 -3 -8 -6 -18 -6 -23 0 -11
-93 -68 -124 -76 -20 -5 -31 -20 -50 -73 -15 -36 -26 -72 -26 -79 0 -17 -26
-15 -44 4 -23 22 -20 36 19 127 27 62 34 89 29 115 -6 28 -3 34 15 39 11 3 21
9 21 14 0 5 9 18 20 29 21 21 45 18 54 -6z"/>
<path d="M4058 4423 c-58 -118 -63 -133 -63 -194 0 -52 4 -72 19 -88 11 -12
24 -21 31 -21 19 0 46 36 49 65 7 55 24 54 79 -6 73 -78 99 -93 142 -79 66 22
111 79 73 93 -10 4 -10 7 0 18 31 34 -7 75 -59 64 -20 -5 -38 -1 -55 10 l-25
16 29 33 c25 29 29 40 27 87 -2 30 -3 58 -4 62 -2 13 -71 38 -90 32 -11 -3
-25 3 -36 15 -36 40 -50 27 -117 -107z m109 86 c5 -16 11 -19 35 -14 38 9 88
-12 88 -36 0 -19 -92 -99 -113 -99 -15 0 62 -78 94 -95 15 -8 41 -11 66 -8 77
10 53 -47 -27 -63 -45 -10 -85 12 -130 71 -59 76 -66 81 -81 53 -7 -13 -15
-38 -18 -57 -8 -45 -37 -63 -57 -37 -21 30 -17 53 24 141 74 159 106 197 119
144z"/>
<path d="M4645 4520 c-30 -24 -47 -30 -76 -28 -21 1 -42 -1 -46 -5 -11 -12
-13 -129 -2 -149 5 -10 16 -18 23 -18 10 0 13 -15 12 -57 -4 -99 24 -154 68
-137 13 5 36 60 36 88 0 5 11 32 25 60 27 55 30 57 150 82 l39 9 3 62 c3 56 1
63 -24 82 -21 18 -34 20 -74 15 -40 -5 -50 -3 -55 10 -9 24 -37 19 -79 -14z
m70 -10 c4 -14 13 -19 23 -16 55 16 76 17 98 6 31 -17 32 -48 2 -54 -132 -25
-140 -29 -155 -65 -9 -20 -18 -38 -22 -41 -4 -3 -14 -30 -23 -60 -10 -37 -20
-56 -33 -58 -39 -8 -46 51 -15 123 26 62 26 65 -14 65 -35 0 -46 13 -46 51 0
17 8 19 59 19 52 0 61 3 75 25 20 30 42 32 51 5z"/>
<path d="M6059 4477 c-77 -122 -93 -163 -94 -242 0 -65 2 -70 27 -84 30 -17
34 -16 187 37 114 39 128 53 127 122 l-2 55 -34 -1 c-19 -1 -55 -5 -79 -9 -42
-8 -43 -7 -32 13 6 11 11 51 11 88 0 52 -4 70 -17 80 -32 24 -47 14 -94 -59z
m91 38 c18 -21 -1 -80 -40 -130 -16 -21 -30 -42 -30 -47 0 -12 127 0 193 18
18 6 23 -12 8 -34 -9 -14 -188 -81 -239 -89 -38 -6 -62 10 -62 41 0 45 120
256 146 256 6 0 17 -7 24 -15z"/>
<path d="M6235 4310 c-3 -6 1 -7 9 -4 18 7 21 14 7 14 -6 0 -13 -4 -16 -10z"/>
<path d="M6570 4503 c-71 -112 -103 -191 -107 -261 -2 -60 0 -69 24 -94 28
-29 61 -37 67 -15 16 63 45 132 77 184 35 56 39 70 39 126 0 113 -48 142 -100
60z m80 2 c11 -21 11 -30 -5 -65 -10 -22 -25 -46 -33 -52 -15 -13 -22 -28 -57
-125 l-22 -63 -28 22 c-23 18 -26 27 -22 58 8 64 113 250 140 250 8 0 20 -11
27 -25z"/>
<path d="M3625 4509 c-98 -52 -135 -111 -143 -225 l-5 -84 37 -35 c46 -43 72
-44 153 -6 70 33 133 92 134 124 5 117 0 142 -31 168 -16 14 -30 30 -30 36 0
13 -44 43 -62 43 -7 0 -31 -9 -53 -21z m118 -53 c49 -57 59 -95 34 -127 -31
-39 -157 -109 -197 -109 -10 0 -32 12 -49 26 -54 45 -40 124 35 197 32 32 91
66 115 67 8 0 36 -24 62 -54z"/>
<path d="M3665 4411 c-11 -5 -40 -31 -65 -57 -40 -43 -43 -49 -25 -52 28 -4
132 43 144 65 6 12 6 25 0 36 -11 18 -23 20 -54 8z"/>
<path d="M5595 4513 c-56 -30 -96 -66 -120 -108 -21 -35 -25 -55 -25 -121 0
-87 11 -114 58 -138 15 -7 41 -11 57 -9 61 8 165 76 191 125 29 55 8 190 -33
205 -7 3 -13 11 -13 19 0 17 -39 44 -65 44 -11 -1 -33 -8 -50 -17z m76 -13
c10 -6 19 -16 19 -23 0 -7 14 -24 30 -39 36 -31 41 -87 12 -115 -49 -46 -122
-91 -122 -76 0 5 -4 2 -8 -5 -5 -7 -25 -15 -45 -19 -31 -5 -40 -1 -67 25 -36
36 -39 75 -11 131 23 43 80 97 125 117 38 16 43 17 67 4z"/>
<path d="M5625 4409 c-11 -7 -37 -29 -57 -50 -62 -64 -47 -75 44 -35 65 29 86
51 71 74 -13 21 -32 25 -58 11z"/>
<path d="M6969 4502 c-105 -67 -137 -133 -127 -258 4 -45 10 -60 33 -80 15
-13 32 -25 37 -25 4 -1 14 -2 21 -3 20 -4 103 30 150 60 63 40 77 68 77 152
l0 70 -53 56 c-30 32 -61 56 -73 56 -11 0 -40 -13 -65 -28z m108 -18 c9 -14
29 -39 45 -54 41 -41 37 -75 -14 -122 -46 -42 -134 -88 -170 -88 -13 0 -36 11
-52 23 -25 20 -29 31 -29 71 0 61 40 120 113 164 65 39 84 40 107 6z"/>
<path d="M7004 4398 c-41 -32 -61 -53 -74 -77 -9 -18 -8 -21 7 -21 26 1 104
38 130 62 22 20 22 23 6 40 -21 24 -34 23 -69 -4z"/>
</g>
</svg>
